<mxfile host="app.diagrams.net" modified="2020-08-27T13:13:07.774Z" agent="5.0 (Windows)" etag="R6SoIh_Pz22INv1BUsZ3" version="13.6.5" type="github">
  <diagram id="rCNa7DLD2jpDUoPVRZJ3" name="Page-1">
    <mxGraphModel dx="1038" dy="547" grid="1" gridSize="10" guides="1" tooltips="1" connect="1" arrows="1" fold="1" page="1" pageScale="1" pageWidth="1169" pageHeight="827" math="0" shadow="0">
      <root>
        <mxCell id="0" />
        <mxCell id="1" parent="0" />
        <mxCell id="l5Gfr-ivbOJTfbFVOcsI-1" value="Capacity Building" style="swimlane;html=1;childLayout=stackLayout;resizeParent=1;resizeParentMax=0;horizontal=1;startSize=20;horizontalStack=0;" vertex="1" parent="1">
          <mxGeometry x="70" y="80" width="1070" height="490" as="geometry" />
        </mxCell>
        <mxCell id="l5Gfr-ivbOJTfbFVOcsI-2" value="TAS/PMDP, Counties/TSI" style="swimlane;html=1;startSize=20;horizontal=0;" vertex="1" parent="l5Gfr-ivbOJTfbFVOcsI-1">
          <mxGeometry y="20" width="1070" height="230" as="geometry" />
        </mxCell>
        <mxCell id="l5Gfr-ivbOJTfbFVOcsI-6" value="Start" style="rounded=1;whiteSpace=wrap;html=1;" vertex="1" parent="l5Gfr-ivbOJTfbFVOcsI-2">
          <mxGeometry x="67.5" y="10" width="90" height="40" as="geometry" />
        </mxCell>
        <mxCell id="l5Gfr-ivbOJTfbFVOcsI-12" value="Compile training request/needs" style="whiteSpace=wrap;html=1;rounded=0;" vertex="1" parent="l5Gfr-ivbOJTfbFVOcsI-2">
          <mxGeometry x="340" y="63.75" width="120" height="64.5" as="geometry" />
        </mxCell>
        <mxCell id="l5Gfr-ivbOJTfbFVOcsI-9" value="Update training modules" style="whiteSpace=wrap;html=1;rounded=0;" vertex="1" parent="l5Gfr-ivbOJTfbFVOcsI-2">
          <mxGeometry x="210" y="69" width="90" height="54" as="geometry" />
        </mxCell>
        <mxCell id="l5Gfr-ivbOJTfbFVOcsI-7" value="Develop schedule of training sessions" style="rounded=0;whiteSpace=wrap;html=1;" vertex="1" parent="l5Gfr-ivbOJTfbFVOcsI-2">
          <mxGeometry x="65" y="77" width="95" height="73" as="geometry" />
        </mxCell>
        <mxCell id="l5Gfr-ivbOJTfbFVOcsI-11" value="" style="endArrow=classic;html=1;exitX=0.5;exitY=1;exitDx=0;exitDy=0;entryX=0.5;entryY=0;entryDx=0;entryDy=0;" edge="1" parent="l5Gfr-ivbOJTfbFVOcsI-2" source="l5Gfr-ivbOJTfbFVOcsI-6" target="l5Gfr-ivbOJTfbFVOcsI-7">
          <mxGeometry width="50" height="50" relative="1" as="geometry">
            <mxPoint x="410" y="200" as="sourcePoint" />
            <mxPoint x="460" y="150" as="targetPoint" />
          </mxGeometry>
        </mxCell>
        <mxCell id="l5Gfr-ivbOJTfbFVOcsI-10" value="" style="edgeStyle=orthogonalEdgeStyle;rounded=0;orthogonalLoop=1;jettySize=auto;html=1;" edge="1" parent="l5Gfr-ivbOJTfbFVOcsI-2" source="l5Gfr-ivbOJTfbFVOcsI-7" target="l5Gfr-ivbOJTfbFVOcsI-9">
          <mxGeometry relative="1" as="geometry" />
        </mxCell>
        <mxCell id="l5Gfr-ivbOJTfbFVOcsI-13" value="" style="edgeStyle=orthogonalEdgeStyle;rounded=0;orthogonalLoop=1;jettySize=auto;html=1;" edge="1" parent="l5Gfr-ivbOJTfbFVOcsI-2" source="l5Gfr-ivbOJTfbFVOcsI-9" target="l5Gfr-ivbOJTfbFVOcsI-12">
          <mxGeometry relative="1" as="geometry" />
        </mxCell>
        <mxCell id="l5Gfr-ivbOJTfbFVOcsI-21" value="Conduct Training" style="whiteSpace=wrap;html=1;rounded=0;" vertex="1" parent="l5Gfr-ivbOJTfbFVOcsI-2">
          <mxGeometry x="630" y="114" width="120" height="60" as="geometry" />
        </mxCell>
        <mxCell id="l5Gfr-ivbOJTfbFVOcsI-35" value="End" style="rounded=1;whiteSpace=wrap;html=1;" vertex="1" parent="l5Gfr-ivbOJTfbFVOcsI-2">
          <mxGeometry x="990" y="129" width="60" height="30" as="geometry" />
        </mxCell>
        <mxCell id="l5Gfr-ivbOJTfbFVOcsI-3" value="Procurement" style="swimlane;html=1;startSize=20;horizontal=0;" vertex="1" parent="l5Gfr-ivbOJTfbFVOcsI-1">
          <mxGeometry y="250" width="1070" height="120" as="geometry" />
        </mxCell>
        <mxCell id="l5Gfr-ivbOJTfbFVOcsI-4" value="Trainees" style="swimlane;html=1;startSize=20;horizontal=0;" vertex="1" parent="l5Gfr-ivbOJTfbFVOcsI-1">
          <mxGeometry y="370" width="1070" height="120" as="geometry" />
        </mxCell>
        <mxCell id="l5Gfr-ivbOJTfbFVOcsI-23" value="Attend Training" style="shape=process;whiteSpace=wrap;html=1;backgroundOutline=1;" vertex="1" parent="l5Gfr-ivbOJTfbFVOcsI-4">
          <mxGeometry x="610" y="24" width="120" height="60" as="geometry" />
        </mxCell>
        <mxCell id="l5Gfr-ivbOJTfbFVOcsI-30" value="Feedback/Evaluation" style="shape=process;whiteSpace=wrap;html=1;backgroundOutline=1;" vertex="1" parent="l5Gfr-ivbOJTfbFVOcsI-4">
          <mxGeometry x="810" y="24" width="120" height="60" as="geometry" />
        </mxCell>
        <mxCell id="l5Gfr-ivbOJTfbFVOcsI-25" value="" style="edgeStyle=orthogonalEdgeStyle;rounded=0;orthogonalLoop=1;jettySize=auto;html=1;" edge="1" parent="l5Gfr-ivbOJTfbFVOcsI-1" source="l5Gfr-ivbOJTfbFVOcsI-23">
          <mxGeometry relative="1" as="geometry">
            <mxPoint x="690" y="194" as="targetPoint" />
          </mxGeometry>
        </mxCell>
        <mxCell id="l5Gfr-ivbOJTfbFVOcsI-18" value="" style="edgeStyle=orthogonalEdgeStyle;rounded=0;orthogonalLoop=1;jettySize=auto;html=1;" edge="1" parent="1" source="l5Gfr-ivbOJTfbFVOcsI-14" target="l5Gfr-ivbOJTfbFVOcsI-17">
          <mxGeometry relative="1" as="geometry" />
        </mxCell>
        <mxCell id="l5Gfr-ivbOJTfbFVOcsI-14" value="Identify trainees/ participants" style="whiteSpace=wrap;html=1;rounded=0;" vertex="1" parent="1">
          <mxGeometry x="560" y="166" width="120" height="60" as="geometry" />
        </mxCell>
        <mxCell id="l5Gfr-ivbOJTfbFVOcsI-15" value="" style="edgeStyle=orthogonalEdgeStyle;rounded=0;orthogonalLoop=1;jettySize=auto;html=1;" edge="1" parent="1" source="l5Gfr-ivbOJTfbFVOcsI-12" target="l5Gfr-ivbOJTfbFVOcsI-14">
          <mxGeometry relative="1" as="geometry" />
        </mxCell>
        <mxCell id="l5Gfr-ivbOJTfbFVOcsI-22" value="" style="edgeStyle=orthogonalEdgeStyle;rounded=0;orthogonalLoop=1;jettySize=auto;html=1;" edge="1" parent="1" source="l5Gfr-ivbOJTfbFVOcsI-17" target="l5Gfr-ivbOJTfbFVOcsI-21">
          <mxGeometry relative="1" as="geometry" />
        </mxCell>
        <mxCell id="l5Gfr-ivbOJTfbFVOcsI-17" value="Identify venue and consultant" style="whiteSpace=wrap;html=1;rounded=0;" vertex="1" parent="1">
          <mxGeometry x="560" y="301" width="120" height="48" as="geometry" />
        </mxCell>
        <mxCell id="l5Gfr-ivbOJTfbFVOcsI-34" value="" style="edgeStyle=orthogonalEdgeStyle;rounded=0;orthogonalLoop=1;jettySize=auto;html=1;" edge="1" parent="1" source="l5Gfr-ivbOJTfbFVOcsI-28" target="l5Gfr-ivbOJTfbFVOcsI-35">
          <mxGeometry relative="1" as="geometry">
            <mxPoint x="1080" y="244" as="targetPoint" />
          </mxGeometry>
        </mxCell>
        <mxCell id="l5Gfr-ivbOJTfbFVOcsI-28" value="Training report" style="whiteSpace=wrap;html=1;rounded=0;" vertex="1" parent="1">
          <mxGeometry x="880" y="214" width="120" height="60" as="geometry" />
        </mxCell>
        <mxCell id="l5Gfr-ivbOJTfbFVOcsI-29" value="" style="edgeStyle=orthogonalEdgeStyle;rounded=0;orthogonalLoop=1;jettySize=auto;html=1;" edge="1" parent="1" source="l5Gfr-ivbOJTfbFVOcsI-21" target="l5Gfr-ivbOJTfbFVOcsI-28">
          <mxGeometry relative="1" as="geometry" />
        </mxCell>
        <mxCell id="l5Gfr-ivbOJTfbFVOcsI-32" value="" style="edgeStyle=orthogonalEdgeStyle;rounded=0;orthogonalLoop=1;jettySize=auto;html=1;entryX=0.5;entryY=1;entryDx=0;entryDy=0;" edge="1" parent="1" source="l5Gfr-ivbOJTfbFVOcsI-30" target="l5Gfr-ivbOJTfbFVOcsI-28">
          <mxGeometry relative="1" as="geometry">
            <mxPoint x="940" y="394" as="targetPoint" />
          </mxGeometry>
        </mxCell>
      </root>
    </mxGraphModel>
  </diagram>
</mxfile>
